# xmcd
#
# Track frame offsets:
#	150
#	24081
#	47932
#	75640
#	93036
#	110405
#	135781
#	152887
#	173806
#	196193
#	218857
#	242045
#	267509
#	287427
#	309756
#
# Disc length: 4433 seconds
#
# Revision: 2
# Processed by: cddbd v1.5.2PL0 Copyright (c) Steve Scherf et al.
# Submitted via: audiograbber 1.83.01
#
DISCID=b8114f0f
DTITLE=Jose Padilla - The Best Of Cafe's Del Mar - Volume 1
DYEAR=1900
DGENRE=Ambient
TTITLE0=A.R Rabma - Munbai Theme Tune
TTITLE1=Afterlife - Dub in Ya Mind
TTITLE2=Mody - Whispering Wind
TTITLE3=Jelly and Fiab - Appreciation
TTITLE4=A New Funky Generation - The Messenger
TTITLE5=Lux - Nothern Lights
TTITLE6=Ame Strong - Tout est Bleu
TTITLE7=Mandalay - Beautiful (7" Canny Mix)
TTITLE8=Deep and Wide - Easy Rider
TTITLE9=4 Wings - Penelope (Radio Edit)
TTITLE10=Cyberfit - Pojo Pojo
TTITLE11=Jose Padilla - Adios Ayer
TTITLE12=UKO - Sunbeams
TTITLE13=Pluse (ft. Cathy Battistessa Riva) - Slow
TTITLE14=Nookie (ft. Larry Heard) - Paradise (Tease Mix)
EXTD=
EXTT0=
EXTT1=
EXTT2=
EXTT3=
EXTT4=
EXTT5=
EXTT6=
EXTT7=
EXTT8=
EXTT9=
EXTT10=
EXTT11=
EXTT12=
EXTT13=
EXTT14=
PLAYORDER=
